<svg version="1.2" xmlns="http://www.w3.org/2000/svg" viewBox="0 0 1500 1000" width="1500" height="1000">
	<title>2480559-ai</title>
	<defs>
		<clipPath clipPathUnits="userSpaceOnUse" id="cp1">
			<path d="m1262.5 868.2h-918.55v-665.37h918.55z"/>
		</clipPath>
	</defs>
	<style>
		.s0 { fill: #eeeeee } 
		.s1 { fill: none;stroke: #ded8d5;stroke-width: 3.9 } 
		.s2 { fill: #ffb1a5 } 
		.s3 { fill: #ead254 } 
		.s4 { fill: #00857b } 
		.s5 { fill: #ededed } 
		.s6 { fill: #c98bd2 } 
		.s7 { fill: none;stroke: #ffffff;stroke-linecap: round;stroke-linejoin: round;stroke-width: 3.3 } 
		.s8 { fill: #ffffff } 
		.s9 { fill: #56dfed } 
		.s10 { fill: none;stroke: #ffffff;stroke-width: 2.4 } 
		.s11 { fill: #8e716c } 
		.s12 { fill: none;stroke: #282828;stroke-linecap: round;stroke-linejoin: round;stroke-width: 2.5 } 
		.s13 { fill: #f3978e } 
		.s14 { fill: #372f5f } 
		.s15 { fill: #261b43 } 
		.s16 { fill: #e6e6e6 } 
		.s17 { fill: #282828 } 
		.s18 { fill: none;stroke: #282828;stroke-linecap: round;stroke-linejoin: round;stroke-width: 2 } 
		.s19 { fill: none;stroke: #c98bd2;stroke-width: 2.7 } 
		.s20 { fill: #005683 } 
		.s21 { fill: none;stroke: #282828;stroke-linecap: round;stroke-linejoin: round;stroke-width: 2.8 } 
		.s22 { fill: none;stroke: #282828;stroke-linecap: round;stroke-linejoin: round;stroke-width: 3.1 } 
		.s23 { fill: none;stroke: #ffffff;stroke-width: 3.9 } 
	</style>
	<g id="BACKGROUND">
		<path id="&lt;Path&gt;" class="s0" d="m1500.4 1000h-1500v-1000h1500z"/>
	</g>
	<g id="OBJECTS">
		<g id="&lt;Group&gt;">
			<g id="&lt;Group&gt;">
				<g id="&lt;Group&gt;">
					<g id="&lt;Group&gt;">
						<path id="&lt;Path&gt;" class="s1" d="m252 317.4h998.7"/>
						<path id="&lt;Path&gt;" class="s1" d="m1237.6 869.8h-972.6c-7.2 0-13-5.8-13-13v-591.9c0-7.2 5.8-13 13-13h972.6c7.3 0 13.1 5.8 13.1 13v591.9c0 7.2-5.8 13-13.1 13z"/>
						<g id="&lt;Group&gt;">
							<path id="&lt;Path&gt;" class="s2" d="m317.8 285.3c0 5-4.1 9.1-9.2 9.1-5 0-9.1-4.1-9.1-9.1 0-5.1 4.1-9.1 9.1-9.1 5.1 0 9.2 4 9.2 9.1z"/>
							<path id="&lt;Path&gt;" class="s3" d="m353.3 285.3c0 5-4.1 9.1-9.2 9.1-5 0-9.1-4.1-9.1-9.1 0-5.1 4.1-9.1 9.1-9.1 5.1 0 9.2 4 9.2 9.1z"/>
							<path id="&lt;Path&gt;" class="s4" d="m388.8 285.3c0 5-4.1 9.1-9.2 9.1-5 0-9.1-4.1-9.1-9.1 0-5.1 4.1-9.1 9.1-9.1 5.1 0 9.2 4 9.2 9.1z"/>
						</g>
					</g>
				</g>
				<g id="&lt;Group&gt;">
					<g id="&lt;Group&gt;">
						<g id="&lt;Group&gt;">
							<g id="&lt;Group&gt;">
								<path id="&lt;Path&gt;" class="s5" d="m1380.4 537.9h-234.7c-6.6 0-12-5.4-12-12v-217.1c0-6.6 5.4-12 12-12h234.7c6.7 0 12 5.4 12 12v217.1c0 6.6-5.3 12-12 12z"/>
								<path id="&lt;Path&gt;" class="s1" d="m1380.4 537.9h-234.7c-6.6 0-12-5.4-12-12v-217.1c0-6.6 5.4-12 12-12h234.7c6.7 0 12 5.4 12 12v217.1c0 6.6-5.3 12-12 12z"/>
							</g>
						</g>
					</g>
					<g id="&lt;Group&gt;">
						<g id="&lt;Group&gt;">
							<g id="&lt;Group&gt;">
								<g id="&lt;Group&gt;">
									<path id="&lt;Path&gt;" class="s6" d="m1190.4 463.1v-100c0-6.6 5.4-12 12.1-12h122c6.6 0 12 5.4 12 12v100c0 6.7-5.4 12.1-12 12.1h-122c-6.7 0-12.1-5.4-12.1-12.1z"/>
								</g>
							</g>
						</g>
						<g id="&lt;Group&gt;">
							<path id="&lt;Path&gt;" class="s7" d="m1296.8 433.8h-57.1-10.3v-45.2h67.4v11.3z"/>
							<path id="&lt;Path&gt;" class="s7" d="m1296.8 388.6l-33.7 26.5-33.7-26.5"/>
						</g>
					</g>
				</g>
				<g id="&lt;Group&gt;">
					<g id="&lt;Group&gt;">
						<g id="&lt;Group&gt;">
							<g id="&lt;Group&gt;">
								<path id="&lt;Path&gt;" class="s5" d="m347.5 719.6h-223.9c-6.3 0-11.4-5.1-11.4-11.4v-195.1c0-6.4 5.1-11.5 11.4-11.5h223.9c6.3 0 11.4 5.1 11.4 11.5v195.1c0 6.3-5.1 11.4-11.4 11.4z"/>
								<path id="&lt;Path&gt;" class="s1" d="m347.5 719.6h-223.9c-6.3 0-11.4-5.1-11.4-11.4v-195.1c0-6.4 5.1-11.5 11.4-11.5h223.9c6.3 0 11.4 5.1 11.4 11.5v195.1c0 6.3-5.1 11.4-11.4 11.4z"/>
							</g>
						</g>
					</g>
					<g id="&lt;Group&gt;">
						<path id="&lt;Path&gt;" class="s2" d="m293 677.6h-116.1c-7.3 0-13.2-5.9-13.2-13.2v-112.2c0-7.3 5.9-13.2 13.2-13.2h116.1c7.4 0 13.3 5.9 13.3 13.2v112.2c0 7.3-5.9 13.2-13.3 13.2z"/>
						<g id="&lt;Group&gt;">
							<path id="&lt;Compound Path&gt;" fill-rule="evenodd" class="s8" d="m264.4 581.1c15.6 15.6 15.6 41.4 0 57-15.7 15.7-41.4 15.7-57.1 0-15.6-15.6-15.6-41.4 0-57 15.7-15.7 41.4-15.7 57.1 0zm-18-6.3q3.1 6 5 12.1h12.9c-4.5-5.7-10.7-10-17.9-12.1zm4.3 32.4c0-5.2-0.6-10.4-1.9-15.6h-25.8c-1.3 5.2-1.9 10.4-1.9 15.6zm-29.5 4.8q0.5 7.8 2.8 15.6h23.7q2.2-7.8 2.8-15.6zm8.9-38.3q-3.7 6.6-5.8 13.2h23.1q-2.2-6.6-5.9-13.2-2.7-0.5-5.7-0.5-2.9 0-5.7 0.5zm-22.7 13.2h12.9q1.9-6.1 5-12.1c-7.1 2.1-13.3 6.4-17.9 12.1zm-7.9 20.3h17.4q0.1-7.8 2-15.6h-14.7c-2.6 4.7-4.3 10-4.7 15.6zm19.9 20.4q-2.1-7.8-2.5-15.6h-17.4c0.4 5.6 2.1 10.9 4.7 15.6zm6.4 17q-3-6.2-5-12.3h-13.4c4.7 5.8 11 10.2 18.4 12.3zm14.8 1.1q3.4-6.7 5.7-13.4h-20.8q2.2 6.7 5.6 13.4 2.3 0.3 4.8 0.3 2.4 0 4.7-0.3zm23.7-13.4h-13.4q-2 6.1-5 12.3c7.4-2.1 13.7-6.5 18.4-12.3zm7.9-20.3h-17.4q-0.4 7.8-2.5 15.6h15.2c2.6-4.7 4.3-10 4.7-15.6zm-4.7-20.4h-14.7q1.9 7.8 2 15.6h17.4c-0.4-5.6-2.1-10.9-4.7-15.6z"/>
						</g>
					</g>
				</g>
			</g>
			<g id="&lt;Group&gt;">
				<path id="&lt;Path&gt;" class="s6" d="m334.2 194.9h-202.8c-4.2 0-7.6-3.4-7.6-7.6 0-4.2 3.4-7.6 7.6-7.6h202.8c4.1 0 7.5 3.4 7.5 7.6 0 4.2-3.4 7.6-7.5 7.6z"/>
				<path id="&lt;Path&gt;" class="s9" d="m1388.7 690.2h-98.4c-4.2 0-7.6-3.4-7.6-7.6 0-4.1 3.4-7.5 7.6-7.5h98.4c4.2 0 7.6 3.4 7.6 7.5 0 4.2-3.4 7.6-7.6 7.6z"/>
				<path id="&lt;Path&gt;" class="s6" d="m1319.8 778h-12.1c-3.1 0-5.7-2.6-5.7-5.7v-11.3c0-3.2 2.6-5.7 5.7-5.7h12.1c3.1 0 5.7 2.5 5.7 5.7v11.3c0 3.1-2.6 5.7-5.7 5.7z"/>
				<path id="&lt;Path&gt;" class="s2" d="m179.7 830.5h-12.1c-3.1 0-5.7-2.5-5.7-5.7v-11.3c0-3.1 2.6-5.7 5.7-5.7h12.1c3.1 0 5.7 2.6 5.7 5.7v11.3c0 3.2-2.6 5.7-5.7 5.7z"/>
				<g id="&lt;Group&gt;">
					<g id="&lt;Group&gt;">
						<path id="&lt;Path&gt;" class="s2" d="m1100.2 187h-200.2c-3.3 0-6-2.7-6-6v-48.9c0-3.3 2.7-6 6-6h200.2c3.3 0 6 2.7 6 6v48.9c0 3.3-2.7 6-6 6z"/>
						<g id="&lt;Group&gt;">
							<path id="&lt;Path&gt;" class="s10" d="m922.9 147.8h142.4"/>
							<path id="&lt;Path&gt;" class="s10" d="m922.9 162.4h58"/>
						</g>
					</g>
					<path id="&lt;Path&gt;" class="s2" d="m947 180.1l-29.9 23.8v-23.8z"/>
				</g>
				<g id="&lt;Group&gt;">
					<g id="&lt;Group&gt;">
						<g id="&lt;Group&gt;">
							<g id="&lt;Group&gt;">
								<g id="&lt;Group&gt;">
									<g id="&lt;Group&gt;">
										<path id="&lt;Path&gt;" class="s9" d="m608.4 190.7h-96.9c-9.4 0-17-7.7-17-17.1v-90.1c0-7.1 5.8-12.9 12.9-12.9h101c7.2 0 13 5.8 13 12.9v94.2c0 7.2-5.8 13-13 13z"/>
									</g>
								</g>
							</g>
						</g>
					</g>
					<g id="&lt;Group&gt;">
						<path id="&lt;Compound Path&gt;" fill-rule="evenodd" class="s8" d="m587.5 148.9c-0.5 0.5-1.1 1.2-1.7 1.7q-1.3 1.2-2.3 2.3c-0.1 0.2-0.1 0.2-0.1 0.2-2.1 2.1-4.6 3.3-7.7 3.3-0.4 0-0.7 0-0.9 0-4.6-0.4-8.7-2.1-11.7-3.5-8-3.8-14.8-9.3-20.6-16.1-4.8-5.7-8-11-10.1-16.9-0.9-2.3-1.9-5.9-1.6-9.8 0.2-2.5 1.3-4.6 2.9-6.3l4.6-4.5c1.4-1.5 2.9-2.1 4.6-2.1 1.7 0 3.3 0.8 4.6 2.1 0.8 0.7 1.7 1.6 2.5 2.4 0.4 0.5 0.8 0.9 1.2 1.3l3.6 3.6c1.4 1.4 2.2 3.1 2.2 4.8 0 1.7-0.8 3.3-2.2 4.8q-0.6 0.5-1.2 1.1c-0.9 0.9-1.8 2-2.8 2.9 0.6 1.5 1.8 3.3 3.3 5.2 3.4 4.2 6.9 7.4 10.7 9.9 0.4 0.2 0.8 0.3 1.3 0.6q0.4 0.2 0.8 0.4l4.1-4.1c1.3-1.3 3-2.1 4.7-2.1 1.6 0 3.3 0.8 4.6 2.2l7.2 7.2c2.7 2.7 2.7 6.6 0 9.4zm-2.9-6.4l-7.3-7.2c-0.4-0.4-1-1-1.6-1-0.8 0-1.5 0.6-1.8 1l-4.6 4.5c-1 1-2.3 1.3-3.6 0.6l-0.1-0.1c-0.4-0.3-0.8-0.4-1.3-0.7-0.5-0.2-1.2-0.5-1.7-0.9-4.2-2.7-8.1-6.2-11.7-10.7-1.9-2.6-3.4-4.6-4.3-6.9v-0.2c-0.2-0.7-0.5-1.9 0.8-3.2 0.1-0.1 0.1-0.1 0.1-0.1 1.1-1.1 2.1-2.1 3.3-3.2q0.5-0.6 1.1-1.2c0.4-0.4 0.9-1 0.9-1.8 0-0.7-0.5-1.4-0.9-1.8l-3.6-3.6c-0.5-0.4-0.9-0.9-1.3-1.3q-1.1-1.2-2.3-2.3c-0.5-0.6-1-0.9-1.8-0.9-0.8 0-1.4 0.5-1.8 0.9l-4.4 4.3c-1.2 1.1-1.7 2.4-1.8 3.8-0.3 2.4 0.3 4.9 1.5 8 2.1 5.3 5.1 10.3 9.5 15.6 5.4 6.4 11.8 11.5 19.2 15.1 2.6 1.3 6.2 2.8 10 3.1 0.3 0 0.4 0 0.7 0 1.9 0 3.3-0.7 4.6-2 0.9-0.9 1.7-1.8 2.6-2.5q0.8-0.8 1.6-1.6c1.1-1.3 1.1-2.6 0-3.7z"/>
					</g>
				</g>
			</g>
		</g>
		<g id="&lt;Clip Group&gt;" clip-path="url(#cp1)">
			<g id="&lt;Group&gt;">
				<g id="&lt;Group&gt;">
					<g id="&lt;Group&gt;">
						<path id="&lt;Path&gt;" class="s11" d="m1034.3 973.9h-50.8l-17.7-225.1h-6.5l-18.2 225.1h-50.8c-35.5-222 4.8-322.9 4.8-322.9l62.4-8.3-0.6-7.3 73 9.8c0 0 39.9 106.7 4.4 328.7z"/>
						<path id="&lt;Path&gt;" class="s12" d="m936.1 748.8h53"/>
					</g>
					<g id="&lt;Group&gt;">
						<g id="&lt;Group&gt;">
							<g id="&lt;Group&gt;">
								<g id="&lt;Group&gt;">
									<path id="&lt;Path&gt;" class="s2" d="m1098.6 658.6c1.9 10.2-3.5 20.4-13.2 24.5q-0.2 0.1-0.4 0.2c-12.1 5.1-26-1.5-29.8-14.1-19.7-66-35.3-141.5-25.8-140.4 1.8 0.3 36.9-0.1 43.2 9.9 7.2 11.5 16.6 70.1 26 119.9z"/>
								</g>
								<path id="&lt;Path&gt;" class="s13" d="m1080.9 566l-44.8 17.4-4.2-21.3 46.4-11.6z"/>
								<path id="&lt;Path&gt;" class="s13" d="m1089.4 608.5c0 0-21.2 28.5-20.2 27.2 1-1.3 16.6-46.1 16.6-46.1z"/>
							</g>
							<g id="&lt;Group&gt;">
								<path id="&lt;Path&gt;" class="s2" d="m1146.9 579.9l-50.6 93.4c-6.3 11.5-20.9 15.2-31.9 8.1-10.9-7.1-13.5-22.1-5.5-32.4l60.8-78.8z"/>
								<g id="&lt;Group&gt;">
									<path id="&lt;Path&gt;" class="s2" d="m1135.5 590.4c-13.2-4.2-20.5-18.4-16.2-31.6 4.3-13.2 18.4-20.4 31.6-16.1 13.2 4.2 20.4 18.4 16.2 31.6-4.3 13.1-18.5 20.4-31.6 16.1z"/>
									<path id="&lt;Path&gt;" class="s2" d="m1119.3 558.8c9.6-23.3 24.7-24.5 36.9-19.5 12.1 5 5.3 12.2 5.3 12.2z"/>
								</g>
								<g id="&lt;Group&gt;">
									<path id="&lt;Path&gt;" class="s14" d="m1174.1 501.7l25.5 11c1.4 0.6 1.9 2.3 1.1 3.8l-33.5 62.5c-0.8 1.5-2.6 2.2-4 1.6l-25.4-11.1c-1.5-0.6-2-2.3-1.2-3.7l33.5-62.6c0.8-1.5 2.6-2.2 4-1.5z"/>
									<path id="&lt;Path&gt;" class="s15" d="m1171.7 500.6l25.4 11c1.4 0.6 2 2.3 1.2 3.7l-33.5 62.6c-0.8 1.5-2.6 2.2-4 1.6l-25.5-11.1c-1.4-0.6-1.9-2.3-1.1-3.7l33.5-62.6c0.8-1.5 2.5-2.2 4-1.5z"/>
									<path id="&lt;Path&gt;" class="s16" d="m1168.8 506.9l22.4 9.7-27.3 51-22.4-9.7z"/>
									<path id="&lt;Path&gt;" class="s8" d="m1191.2 516.6l-49.7 41.3 27.3-51z"/>
								</g>
								<path id="&lt;Path&gt;" class="s2" d="m1148.8 537.3c0 0 5.7 1.1 10.8 4 2.3 1.2 3.4 3.8 2.8 6.4-0.6 2.3-2.5 4-4.8 4.3l-13.3 1.6c0 0-6.9 11.9-15.9 13.3l8.3-20.9z"/>
							</g>
						</g>
						<g id="&lt;Group&gt;">
							<g id="&lt;Group&gt;">
								<path id="&lt;Path&gt;" class="s9" d="m979.8 439.4c-1.5 0 93.8 13.2 109.6 122l-49.5 7.5-10 82.1h-138l-27.4-151.6c0 0 30.6-43.9 87.4-60z"/>
								<path id="&lt;Path&gt;" class="s12" d="m1039.9 568.9l4.3-47.4"/>
							</g>
						</g>
					</g>
					<g id="&lt;Group&gt;">
						<path id="&lt;Path&gt;" class="s2" d="m1002.5 446.3l-35.3 20.5-34.5-20.5c5.8-2.8 9.6-4.2 11.9-4.9v-38.2h44.2v37.8c8.1 2 13.7 5.3 13.7 5.3z"/>
						<path id="&lt;Path&gt;" class="s17" d="m989.7 396.2c0 0 3.1 29.3-16.4 30.9-21.2 1.8-29.1-19.3-29.1-19.3z"/>
						<g id="&lt;Group&gt;">
							<path id="&lt;Path&gt;" class="s13" d="m924.9 379.8c-7 6.3-22.5-17.6-15.8-24.3 6.7-6.7 11.8 3.8 11.8 3.8l3 7.1 2.3 9.7 0.5 2.5z"/>
							<g id="&lt;Group&gt;">
								<g id="&lt;Group&gt;">
									<path id="&lt;Path&gt;" class="s18" d="m912.3 364c0 0 5.3-2.4 10 5.2"/>
								</g>
							</g>
						</g>
						<g id="&lt;Group&gt;">
							<path id="&lt;Path&gt;" class="s13" d="m1005.1 377.7l0.8-2.4 3-9.5 3.6-6.8c0 0 6-10 12.1-2.8 6.1 7.2-11.3 29.7-17.7 22.9z"/>
							<g id="&lt;Group&gt;">
								<g id="&lt;Group&gt;">
									<path id="&lt;Path&gt;" class="s18" d="m1020.7 364.4c0 0-5.1-2.8-10.3 4.3"/>
								</g>
							</g>
						</g>
						<g id="&lt;Group&gt;">
							<path id="&lt;Path&gt;" class="s17" d="m966.5 279.7c29.7 0 53.8 21.5 53.8 53 0 31.6-24.1 46.6-53.8 46.6-29.7 0-53.8-15-53.8-46.6 0-31.5 24.1-53 53.8-53z"/>
						</g>
						<path id="&lt;Path&gt;" class="s2" d="m967 286.9c50-0.9 45.7 48 45.7 48 0 0-0.5 25.2-5.1 47.9-2.4 12.5-10.5 21.3-22.1 28-11.4 6.7-26 6.6-37.2-0.4l-2-1.2c-10.6-6.5-18.1-14.6-20.8-26.3-2.8-11.8-5.5-28.6-5.5-48 0 0-3-47 47-48z"/>
						<g id="&lt;Group&gt;">
							<path id="&lt;Path&gt;" class="s12" d="m970.2 371.6l-3.1 0.9c-1.4 0.3-3-0.3-3.6-1.7q-0.2-0.5-0.2-1.1v-6.8"/>
							<path id="&lt;Path&gt;" class="s17" d="m955.4 336.6l-24.9 5.8c0 0 1.1-6.3 11.3-8.6 10.2-2.3 13.6 2.8 13.6 2.8z"/>
							<path id="&lt;Path&gt;" class="s17" d="m990.5 333.8c9.8 2.3 10.9 8.6 10.9 8.6l-24-5.8c0 0 3.3-5.1 13.1-2.8z"/>
							<path id="&lt;Path&gt;" class="s17" d="m950.1 354.9c0 2.3-1.9 4.1-4.2 4.1-2.3 0-4.2-1.8-4.2-4.1 0-2.4 1.9-4.2 4.2-4.2 2.3 0 4.2 1.8 4.2 4.2z"/>
							<path id="&lt;Path&gt;" class="s17" d="m989.8 354.9c0 2.3-1.9 4.1-4.2 4.1-2.3 0-4.2-1.8-4.2-4.1 0-2.4 1.9-4.2 4.2-4.2 2.3 0 4.2 1.8 4.2 4.2z"/>
							<path id="&lt;Path&gt;" class="s8" d="m950.1 380.3h32.3c0 0-14.3 17.5-32.3 0z"/>
							<g id="&lt;Group&gt;">
								<path id="&lt;Path&gt;" class="s19" d="m962 356.5c0 9.8-8 17.8-17.8 17.8-9.9 0-17.9-8-17.9-17.8 0-9.9 8-17.8 17.9-17.8 9.8 0 17.8 7.9 17.8 17.8z"/>
								<path id="&lt;Path&gt;" class="s19" d="m1005.7 356.5c0 9.8-8 17.8-17.8 17.8-9.8 0-17.8-8-17.8-17.8 0-9.9 8-17.8 17.8-17.8 9.8 0 17.8 7.9 17.8 17.8z"/>
								<path id="&lt;Path&gt;" class="s19" d="m962 356.5c0 0 4.2-4 8.1 0"/>
								<path id="&lt;Path&gt;" class="s19" d="m926.3 356.5l-5.6-0.2"/>
								<path id="&lt;Path&gt;" class="s19" d="m1005.7 356.5l5.7-0.2"/>
							</g>
						</g>
						<path id="&lt;Path&gt;" class="s17" d="m1012 351.2c0 0-20-27-15.4-54.4 0 0 14.9 7.5 18.7 26.7 3.9 19.3-3.3 27.7-3.3 27.7z"/>
						<path id="&lt;Path&gt;" class="s17" d="m918.6 323.5c3.9-19.2 20-28.5 20-28.5 4.6 27.3-18.6 58-18.6 58 0 0-5.3-10.2-1.4-29.5z"/>
						<path id="&lt;Path&gt;" class="s17" d="m1010.3 307.6c0 0-25.6 28.1-95.8 23.3 0 0 10.7-41.3 44.8-45.6 0 0 39.2-4.7 51 22.3z"/>
						<path id="&lt;Path&gt;" class="s17" d="m1042 274.7c0 18.6-15 33.6-33.5 33.6-18.5 0-33.5-15-33.5-33.6 0-18.5 15-33.5 33.5-33.5 18.5 0 33.5 15 33.5 33.5z"/>
					</g>
				</g>
				<g id="&lt;Group&gt;">
					<path id="&lt;Path&gt;" class="s17" d="m604.2 968h-50.7l-18.3-225.1h-6.5l-17.7 225.1h-50.8c-35.4-222 4.4-328.8 4.4-328.8l73-9.7-0.6 7.3 62.4 8.3c0 0 40.3 100.9 4.8 322.9z"/>
					<g id="&lt;Group&gt;">
						<path id="&lt;Path&gt;" class="s17" d="m551.7 447.9c-10.4 0.6-18.8-0.3-25.8-2.4v0.6c-70.3 10.3-108.9-26.6-86-70.4 13-24.8 29.9-28.1 30.4-49.6 0.5-21.4 9.3-39.4 34.7-47 25.3-7.5 42.1 14.1 42.1 14.1 0 0 20.2-7.1 26.4 10.4 5.8 16.3 12.5 27.9 21 37.8 33.4 39.4 41.6 101.5-42.8 106.5z"/>
						<g id="&lt;Group&gt;">
							<path id="&lt;Path&gt;" class="s13" d="m565 372.7l0.5-2.5 2.3-9.7 3-7.1c0 0 5.1-10.5 11.8-3.8 6.7 6.7-8.8 30.6-15.8 24.3z"/>
							<g id="&lt;Group&gt;">
								<g id="&lt;Group&gt;">
									<path id="&lt;Path&gt;" class="s18" d="m579.3 358c0 0-5.2-2.3-9.9 5.3"/>
								</g>
							</g>
						</g>
						<g id="&lt;Group&gt;">
							<path id="&lt;Path&gt;" class="s13" d="m484.8 373.1c-6.4 6.9-23.8-15.6-17.7-22.8 6.1-7.3 12.1 2.8 12.1 2.8l3.6 6.8 3 9.5 0.8 2.4z"/>
							<g id="&lt;Group&gt;">
								<g id="&lt;Group&gt;">
									<path id="&lt;Path&gt;" class="s18" d="m471 358.4c0 0 5-2.8 10.3 4.4"/>
								</g>
							</g>
						</g>
						<g id="&lt;Group&gt;">
							<path id="&lt;Path&gt;" class="s17" d="m579 326.8c0 31.6-24.1 46.6-53.8 46.6-29.7 0-53.8-15-53.8-46.6 0-31.6 24.1-53 53.8-53 29.7 0 53.8 21.4 53.8 53z"/>
						</g>
						<path id="&lt;Path&gt;" class="s2" d="m547.1 454.6h-44.2v-57.3h44.2z"/>
						<path id="&lt;Path&gt;" class="s17" d="m550.9 396.1l-0.6 5.4c-1.2 9.4-8.4 17.9-14.1 20-3.9 1.3-8.3 1.7-12.3 0.7-15.2-3.9-27.5-28.5-27.5-28.5 27.5 17.1 54.5 2.4 54.5 2.4z"/>
						<path id="&lt;Path&gt;" class="s2" d="m571.7 329c0 19.4-2.7 36.2-5.5 48-2.7 11.7-10.2 19.8-20.8 26.3l-2 1.2c-11.2 6.9-25.8 7.1-37.2 0.4-11.6-6.7-19.7-15.6-22.1-28-4.6-22.7-5.1-47.9-5.1-47.9 0 0-4.3-48.9 45.7-48 50 1 47 48 47 48z"/>
						<g id="&lt;Group&gt;">
							<path id="&lt;Path&gt;" class="s12" d="m528.8 365.6l-3.1 0.8c-1.5 0.4-3-0.2-3.6-1.6q-0.2-0.6-0.2-1.2v-4"/>
							<path id="&lt;Path&gt;" class="s17" d="m546.8 330.1c10.9 2.4 12.1 9.3 12.1 9.3l-26.6-6.3c0 0 3.6-5.5 14.5-3z"/>
							<path id="&lt;Path&gt;" class="s17" d="m518.3 333.1l-26.9 6.3c0 0 1.2-6.9 12.2-9.3 11.1-2.5 14.7 3 14.7 3z"/>
							<path id="&lt;Path&gt;" class="s17" d="m508.7 349.6c0 2.3-1.9 4.1-4.2 4.1-2.3 0-4.2-1.8-4.2-4.1 0-2.3 1.9-4.2 4.2-4.2 2.3 0 4.2 1.9 4.2 4.2z"/>
							<path id="&lt;Path&gt;" class="s17" d="m548.4 349.6c0 2.3-1.9 4.1-4.2 4.1-2.3 0-4.2-1.8-4.2-4.1 0-2.3 1.9-4.2 4.2-4.2 2.3 0 4.2 1.9 4.2 4.2z"/>
							<path id="&lt;Path&gt;" class="s8" d="m505.9 373.4h36.8c0 0-2.6 10.1-19.3 10.1-12.7 0-17.5-10.1-17.5-10.1z"/>
						</g>
						<path id="&lt;Path&gt;" class="s17" d="m476.4 317.6c3.8-19.3 18.7-26.7 18.7-26.7 4.6 27.3-15.4 54.4-15.4 54.4 0 0-7.2-8.4-3.3-27.7z"/>
						<path id="&lt;Path&gt;" class="s17" d="m571.7 344.4c0 0-23.2-28-18.6-55.4 0 0 16.1 9.3 20 28.6 3.9 19.3-1.4 26.8-1.4 26.8z"/>
						<path id="&lt;Path&gt;" class="s17" d="m532.4 279.3c34 4.4 42.1 48.4 42.1 48.4-70.2 4.8-93.1-26-93.1-26 11.8-27.1 51-22.4 51-22.4z"/>
					</g>
					<g id="&lt;Group&gt;">
						<g id="&lt;Group&gt;">
							<g id="&lt;Group&gt;">
								<path id="&lt;Path&gt;" class="s2" d="m398.2 778.7c0 0 9.5-213.1 22.8-240.2 4.6-9.3 35.5-12.2 37.1-12.6 17.7-3.9-41.7 256.3-40.7 254.7z"/>
								<path id="&lt;Path&gt;" class="s2" d="m415.8 773.2c13.2 4.5 16.7 20.9 17.6 27.8 0.2 1.7-0.7 3.5-2.3 4.3-2.4 1.1-5.2-0.1-5.9-2.6-2.9-9.8-8.1-9.2-8.1-9.2-4.6 15.2 4.6 21.9 10.5 24.5 2.4 1.1 3.7 3.8 2.8 6.3l-0.1 0.3c-0.8 2.3-3.1 3.7-5.5 3.4-36.2-4.9-26.6-49.3-26.6-49.3z"/>
							</g>
							<path id="&lt;Path&gt;" class="s13" d="m415.2 562.6l41.6 18c0 0-11.8 66.8-12 67.7-0.2 1-34.4-47.3-34.4-47.3z"/>
						</g>
						<g id="&lt;Group&gt;">
							<path id="&lt;Path&gt;" class="s4" d="m553.8 444.5c56.8 16.1 76.2 48.9 76.2 48.9l-27.4 151.7h-138l-10-82.1-49.5-7.6c15.8-108.7 101.9-110.2 100.4-110.2z"/>
							<path id="&lt;Path&gt;" class="s2" d="m524.6 436c33.8 5.2 62.9 21.5 62.9 21.5 0 0-12.7 17-62 17-49.9 0-62.1-16.2-62.1-16.2 31-17 61.2-22.3 61.2-22.3z"/>
						</g>
					</g>
				</g>
				<g id="&lt;Group&gt;">
					<g id="&lt;Group&gt;">
						<g id="&lt;Group&gt;">
							<path id="&lt;Path&gt;" class="s20" d="m748.4 802.7l-8.2 216.8h-107.3l-0.1-216.8z"/>
							<path id="&lt;Path&gt;" class="s20" d="m865.7 802.7l-0.1 216.8h-107.3l-8.2-216.8z"/>
							<path id="&lt;Path&gt;" class="s20" d="m807.1 878.1h-110.9v-75.4h110.9z"/>
						</g>
						<path id="&lt;Path&gt;" class="s21" d="m711.7 878.1h76.5"/>
					</g>
					<g id="&lt;Group&gt;">
						<g id="&lt;Group&gt;">
							<g id="&lt;Group&gt;">
								<path id="&lt;Path&gt;" class="s2" d="m933.5 613.5c6.6 73.5-0.4 127 1.5 262.2l-64 2.7-9.5-253.1z"/>
								<path id="&lt;Path&gt;" class="s13" d="m869.4 642.6l66-9 0.7 15.7c-27.1 17.9-66.7 21.6-66.7 21.6z"/>
							</g>
							<path id="&lt;Path&gt;" class="s6" d="m805.8 444.4c0 0 125.9 31.6 148.7 191.5 0 0-61.6 26.7-123.4 15.2l13.9-53.5z"/>
						</g>
						<g id="&lt;Group&gt;">
							<g id="&lt;Group&gt;">
								<path id="&lt;Path&gt;" class="s2" d="m429.7 510.8l93.7 110.8-28.7 80.8c0 0-71.2-99.1-103.2-175.7z"/>
								<g id="&lt;Group&gt;">
									<g id="&lt;Group&gt;">
										<g id="&lt;Group&gt;">
											<path id="&lt;Path&gt;" class="s2" d="m432.7 514.8c0 0-32.9 18.6-41.2 11.9-14.7-11.8-26.8-54.8-26.8-54.8 0 0 61.6-23.2 61-22.3-0.6 0.9 7 65.2 7 65.2z"/>
											<path id="&lt;Path&gt;" class="s2" d="m421.6 484.4l15.4-26.4c1.8-3.3 5.4-3.5 7.7-3.1 3.5 0.7 5.7 4.2 4.6 7.5-4.3 13.4-17.1 49.1-16.6 52.4z"/>
											<path id="&lt;Path&gt;" class="s2" d="m413.3 463.8l-4.7-39.3c-0.3-3 1.7-5.8 4.7-6.3 3.6-0.7 7.1 1.7 7.7 5.2l10.6 52.8z"/>
											<path id="&lt;Path&gt;" class="s2" d="m394.9 465.3l-10.7-43.5c-0.7-3 0.9-5.8 3.8-6.8 3.2-1.1 6.9 0.8 8.1 4.1l14.4 37.6z"/>
											<path id="&lt;Path&gt;" class="s2" d="m378.9 470.5l-14.6-34.9c-1.3-3.3 0.1-6.9 3.3-8.3 3.4-1.5 7.6 0.1 9.2 3.5l18.3 37z"/>
											<path id="&lt;Path&gt;" class="s2" d="m364.7 471.9l-14.3-22.7c-1.2-2.6-0.1-5.6 2.5-6.8 2.5-1.1 5.6-0.3 7.2 2.1l18.8 26z"/>
										</g>
									</g>
									<path id="&lt;Path&gt;" class="s22" d="m428.7 472.2c0 0-21.4-2.2-23.6 26.4"/>
								</g>
							</g>
							<g id="&lt;Group&gt;">
								<g id="&lt;Group&gt;">
									<path id="&lt;Path&gt;" class="s2" d="m507.5 627.6l98.6-121.4 12.3 128.1c0 0-54.8 75.1-89.9 83.2-35.1 8.1-52.8-52.9-52.8-52.9z"/>
									<path id="&lt;Path&gt;" class="s13" d="m546.7 578.8l71.7 55.5-18.6 23.5c-28.4-17.7-61.7-68-61.7-68z"/>
								</g>
								<path id="&lt;Path&gt;" class="s6" d="m649.7 604.4l-33.8 41.4c-50.5-21.1-82-68.5-82-68.5 52.1-113.7 149.9-135.7 149.9-135.7z"/>
							</g>
						</g>
						<g id="&lt;Group&gt;">
							<path id="&lt;Path&gt;" class="s6" d="m805.8 444.4c32.9 14.4 63.2 44.1 63.2 44.1l0.8 330.4h-240.7l-7.5-332.1c0 0 24-26 62.2-45.5 27.1-14 94.1-9.2 122 3.1z"/>
							<path id="&lt;Path&gt;" class="s21" d="m797.7 603.1c-18.5 0-33.5-15-33.5-33.5v-33.5h66.9v33.5c0 18.5-15 33.5-33.4 33.5z"/>
							<path id="&lt;Path&gt;" class="s21" d="m869.4 652.3l3.1-108.6"/>
							<path id="&lt;Path&gt;" class="s21" d="m625.3 634.2l-5.2-94.2"/>
						</g>
					</g>
					<g id="&lt;Group&gt;">
						<path id="&lt;Path&gt;" class="s17" d="m686.6 319.9l-10-49.6c-0.6-4-2.2-10.3-0.2-16.1 3.1-9.7 14.8-28.3 34.8-19.8l4.3 19.6c0 0-20.7 4.2-29.1 31.3z"/>
						<path id="&lt;Path&gt;" class="s17" d="m709.7 244.6c-0.4 6.5-6.1 35.1-26.3 45.5 0 0-17.8-38 26.3-45.5z"/>
						<path id="&lt;Path&gt;" class="s2" d="m805.8 444.4c0 0-5.8 34.7-63.1 34-57.4-0.8-62.8-35.7-62.8-35.7l23.1-10.6v-84.3h77.7v84.3z"/>
						<path id="&lt;Path&gt;" class="s17" d="m711.2 234.4c0 0 14.2-37.6 58.2-17.6 26.6 12.1 34.1 28.3 37.2 39.8 1.1 3.8 1.5 9.8 1.2 13.4l-10.6 49.9-41.5-69.1-40.2 3.2z"/>
						<g id="&lt;Group&gt;">
							<path id="&lt;Path&gt;" class="s13" d="m797.2 319.9c0 0 5.2-8.3 16-4.2 10.8 4.1 5.9 30.3-10.3 33.7 0 0-5.8 1.3-10.3-2.7 0 0 4-19.4 4.6-26.8z"/>
							<g id="&lt;Group&gt;">
								<g id="&lt;Group&gt;">
									<path id="&lt;Path&gt;" class="s21" d="m811.1 325c0 0-9.1-3-15.5 10.3"/>
								</g>
							</g>
						</g>
						<g id="&lt;Group&gt;">
							<path id="&lt;Path&gt;" class="s13" d="m691.2 346.7c-4.5 4-10.3 2.7-10.3 2.7-16.3-3.4-21.1-29.6-10.3-33.7 10.8-4.1 16 4.2 16 4.2 0.6 7.4 4.6 26.8 4.6 26.8z"/>
							<g id="&lt;Group&gt;">
								<g id="&lt;Group&gt;">
									<path id="&lt;Path&gt;" class="s21" d="m672.7 325c0 0 9.1-3 15.5 10.3"/>
								</g>
							</g>
						</g>
						<path id="&lt;Path&gt;" class="s2" d="m798.3 295.1c0 15.8-1.6 48.9-11.3 68.5-9.1 18.4-24.2 28.4-44 28.9-19.8 0.6-34.6-7-46.4-30.9-11.8-24-11.2-66.3-11.2-66.3 0 0 0-56.5 55.8-56.5 58.8 0 57.1 56.3 57.1 56.3z"/>
						<path id="&lt;Path&gt;" class="s17" d="m743 392.5c23.1 0 37.7-18.3 37.7-18.3 0 0-8.8 40.3-41.9 36-28.7-3.8-35.2-36.8-35.2-36.8 0 0 13.6 19.2 39.4 19.1z"/>
						<g id="&lt;Group&gt;">
							<path id="&lt;Path&gt;" class="s21" d="m747.5 334.4l-4.3 1.1c-2.1 0.5-4.3-0.4-5.1-2.3q-0.3-0.8-0.3-1.6v-13.1"/>
							<path id="&lt;Path&gt;" class="s17" d="m721.3 312.3c0 2.8-2.2 5-5 5-2.8 0-5.1-2.2-5.1-5 0-2.8 2.3-5.1 5.1-5.1 2.8 0 5 2.3 5 5.1z"/>
							<path id="&lt;Path&gt;" class="s17" d="m769 312.3c0 2.8-2.3 5-5.1 5-2.8 0-5.1-2.2-5.1-5 0-2.8 2.3-5.1 5.1-5.1 2.8 0 5.1 2.3 5.1 5.1z"/>
							<path id="&lt;Path&gt;" class="s17" d="m769.6 282.7c13.9 3.5 15.5 13.1 15.5 13.1l-34.2-8.8c0 0 4.7-7.8 18.7-4.3z"/>
							<path id="&lt;Path&gt;" class="s17" d="m729.7 287l-34.2 8.8c0 0 1.5-9.6 15.5-13.1 14-3.5 18.7 4.3 18.7 4.3z"/>
							<path id="&lt;Path&gt;" class="s21" d="m760.8 344.8c0 0-7.6 3.8-19.6 3.8-13.3 0-18.3-3.8-18.3-3.8"/>
							<g id="&lt;Group&gt;">
								<path id="&lt;Path&gt;" class="s23" d="m736.5 313.7c0 12-9.7 21.6-21.6 21.6-11.9 0-21.6-9.6-21.6-21.6 0-11.9 9.7-21.6 21.6-21.6 11.9 0 21.6 9.7 21.6 21.6z"/>
								<path id="&lt;Path&gt;" class="s23" d="m789.6 313.7c0 12-9.7 21.6-21.6 21.6-12 0-21.6-9.6-21.6-21.6 0-11.9 9.6-21.6 21.6-21.6 11.9 0 21.6 9.7 21.6 21.6z"/>
								<path id="&lt;Path&gt;" class="s23" d="m736.5 313.7c0 0 5.1-4.7 9.9 0"/>
								<path id="&lt;Path&gt;" class="s23" d="m693.3 313.7l-7.3-0.1"/>
								<path id="&lt;Path&gt;" class="s23" d="m789.6 313.7l8-0.1"/>
							</g>
						</g>
						<path id="&lt;Path&gt;" class="s17" d="m744.8 233.4c0 0 46.9 13 48.4 12.5 1.4-0.5 7 51 7 51 0 0-7.6-23-39.4-22.4-46.8 0.9-57.2-28.6-57.2-28.6z"/>
					</g>
				</g>
			</g>
		</g>
	</g>
	<g id="DESIGNED BY FREEPIK">
		<g id="&lt;Group&gt;">
			<g id="&lt;Group&gt;">
			</g>
		</g>
	</g>
</svg>